<?xml version="1.0" standalone="no"?>
<!DOCTYPE svg PUBLIC "-//W3C//DTD SVG 20010904//EN"
 "http://www.w3.org/TR/2001/REC-SVG-20010904/DTD/svg10.dtd">
<svg version="1.0" xmlns="http://www.w3.org/2000/svg"
 width="750pt" height="200pt" viewBox="200 410 600 200"
 preserveAspectRatio="xMidYMid meet">

<g transform="translate(0.000000,1024.000000) scale(0.100000,-0.100000)"
fill="#000000" stroke="none">
<path d="M2205 6070 c-325 -46 -607 -258 -729 -546 -67 -161 -92 -359 -67
-520 36 -222 164 -439 336 -571 94 -73 249 -147 360 -174 112 -27 303 -30 411
-6 327 71 588 318 691 654 24 80 27 103 27 248 0 145 -3 168 -27 248 -52 168
-134 303 -253 418 -86 81 -143 120 -248 170 -146 68 -351 100 -501 79z m-145
-443 c17 -8 28 -25 34 -52 l9 -40 376 3 c346 2 377 1 388 -15 17 -22 16 -304
0 -351 -16 -42 -63 -91 -104 -108 -24 -11 -94 -14 -279 -14 -220 0 -246 -2
-240 -16 3 -9 6 -22 6 -30 0 -12 47 -14 298 -14 218 0 301 -3 310 -12 17 -17
15 -45 -4 -52 -9 -3 -157 -6 -329 -6 l-314 0 -20 68 c-11 37 -36 126 -55 197
-42 161 -84 310 -97 352 l-10 32 -116 3 c-99 3 -117 6 -127 21 -9 15 -7 21 8
33 26 18 229 20 266 1z m321 -766 c23 -24 29 -38 29 -73 -1 -101 -110 -143
-174 -67 -83 98 55 230 145 140z m402 3 c45 -45 46 -105 4 -151 -69 -76 -199
4 -167 103 24 73 112 99 163 48z"/>
<path d="M2127 5450 c5 -19 14 -20 203 -20 168 0 200 -2 211 -16 9 -11 10 -20
2 -32 -9 -15 -35 -17 -197 -20 -102 -1 -186 -5 -186 -9 0 -3 14 -57 31 -119
l31 -113 87 -4 c47 -2 158 -3 246 -3 187 1 214 10 246 79 15 34 19 66 19 160
l0 117 -349 0 c-344 0 -349 0 -344 -20z m573 -39 c14 -27 -12 -51 -55 -51 -40
0 -65 31 -44 56 18 22 86 18 99 -5z"/>
<path d="M2285 4814 c-19 -20 -16 -43 8 -58 37 -23 77 35 41 61 -23 17 -29 16
-49 -3z"/>
<path d="M2690 4816 c-6 -8 -10 -25 -8 -38 4 -30 46 -38 65 -12 17 23 16 29
-3 48 -19 20 -38 20 -54 2z"/>
<path d="M3827 5454 c-6 -6 -11 -583 -4 -585 1 0 63 -3 138 -5 289 -10 418 36
486 174 22 46 27 69 27 127 -1 39 -8 86 -17 107 -25 59 -91 122 -160 154 -61
28 -66 29 -262 32 -110 2 -204 0 -208 -4z m378 -158 c54 -32 80 -87 72 -152
-10 -91 -68 -135 -188 -142 l-79 -5 0 162 0 161 77 0 c63 0 84 -4 118 -24z"/>
<path d="M4587 5453 c-4 -3 -7 -134 -7 -289 0 -279 0 -283 21 -295 30 -16 148
-7 160 12 5 7 9 53 9 102 l0 87 58 0 c67 0 79 -10 152 -120 23 -36 50 -71 58
-77 10 -8 47 -13 97 -13 79 0 105 9 105 36 0 7 -39 58 -86 114 -48 55 -85 102
-83 103 2 1 17 9 34 17 49 25 75 74 75 140 0 93 -58 157 -161 179 -54 12 -421
15 -432 4z m386 -150 c24 -23 22 -68 -5 -87 -16 -12 -47 -16 -110 -16 l-88 0
0 63 0 62 92 -3 c67 -3 98 -8 111 -19z"/>
<path d="M5282 5448 c-15 -15 -16 -82 -2 -109 8 -15 22 -19 60 -19 l50 0 0
-155 0 -155 -44 0 c-57 0 -76 -19 -76 -73 0 -73 -2 -72 199 -75 117 -2 187 1
200 8 17 9 21 20 21 65 0 62 -13 75 -77 75 l-38 0 0 155 0 155 46 0 c57 0 69
12 69 70 0 25 -5 51 -12 58 -8 8 -67 12 -198 12 -131 0 -190 -4 -198 -12z"/>
<path d="M5780 5441 c-6 -12 -10 -121 -10 -285 0 -306 -3 -296 88 -296 102 0
102 0 102 96 l0 84 113 0 c128 0 189 14 244 55 102 78 95 246 -12 314 -67 42
-122 51 -330 51 -172 0 -185 -1 -195 -19z m395 -146 c31 -30 32 -56 1 -92 -23
-27 -28 -28 -117 -28 l-94 0 -3 73 -3 72 96 0 c88 0 98 -2 120 -25z"/>
<path d="M6487 5453 c-4 -3 -7 -134 -7 -289 0 -325 -7 -304 99 -304 85 0 91 8
91 133 l0 102 125 -3 125 -3 0 -105 c0 -103 0 -105 26 -114 33 -13 120 -13
145 0 18 10 19 24 19 294 0 250 -2 285 -16 290 -28 11 -150 6 -162 -6 -8 -8
-12 -47 -12 -110 l0 -98 -125 0 -125 0 0 98 c0 63 -4 102 -12 110 -13 13 -159
17 -171 5z"/>
<path d="M7240 5445 c-20 -24 -9 -388 14 -440 23 -55 69 -99 130 -127 44 -20
67 -23 172 -23 114 0 123 2 179 30 66 34 111 87 125 151 15 61 13 397 -2 412
-7 7 -41 12 -83 12 -42 0 -76 -5 -83 -12 -8 -8 -12 -64 -13 -182 -1 -94 -4
-182 -8 -196 -17 -59 -124 -90 -192 -54 -50 26 -59 63 -59 252 0 117 -4 172
-12 180 -18 18 -152 16 -168 -3z"/>
<path d="M8003 5449 c-10 -10 -13 -82 -13 -291 0 -275 0 -277 22 -289 28 -15
415 -6 477 12 64 18 117 73 126 129 10 67 -16 124 -70 156 l-43 25 29 29 c24
23 29 37 29 75 0 69 -22 102 -88 133 -55 26 -65 27 -257 30 -152 3 -203 0
-212 -9z m361 -135 c21 -20 20 -43 -1 -66 -13 -15 -31 -18 -100 -18 l-83 0 0
50 0 50 84 0 c64 0 88 -4 100 -16z m36 -224 c24 -24 25 -38 5 -67 -14 -20 -26
-22 -120 -25 l-105 -3 0 58 0 57 100 0 c87 0 103 -3 120 -20z"/>
</g>
</svg>
